{
  "title": "Wolf Hall S01E02 - Entirely Beloved x264 RB58.mp4.mp4",
  "uid": 11699465,
  "size": 666305564,
  "categoryP": "video",
  "categoryS": "tv_shows",
  "magnet": "?xt=urn:btih:c7e36c619e7fdb5af395ed44d899be11e21fef93&amp;dn=Wolf+Hall+S01E02+-+Entirely+Beloved+x264+RB58.mp4.mp4&amp;tr=udp%3A%2F%2Ftracker.openbittorrent.com%3A80&amp;tr=udp%3A%2F%2Fopen.demonii.com%3A1337&amp;tr=udp%3A%2F%2Ftracker.coppersurfer.tk%3A6969&amp;tr=udp%3A%2F%2Fexodus.desync.com%3A6969",
  "seeders": 38,
  "leechers": 1,
  "uploader": "RedBaron58",
  "files": 1,
  "time": 1423853372,
  "description": "Wolf Hall S01E02 - Entirely Beloved (Period Drama) x264 mp4\n &lt;a href=&quot;\nhttp://www.imdb.com/title/tt3556920/&quot; rel=&quot;nofollow&quot; target=&quot;_NEW&quot;&gt;\nhttp://www.imdb.com/title/tt3556920/&lt;/a&gt;\n\n\n\nPlease be patient My intial upload speed is limited.\nThank you for your kind comments and thumbs ups on my other torrents, your feedback is welcome.\n\n\nAbout the Episode:\nAnne Boleyn summons Cromwell, anxious to know whether she has an ally in him, and he witnesses her \nventing her frustrations on her ladies-in-waiting. \nThe king starts to take notice of Cromwell and comes to rely on the lawyer's advice, but then news \narrives from York that Cardinal Wolsey has been arrested by Harry Percy, a vengeful act for denying \nhis betrothal to Anne eight years earlier.\n\n\nI hope you enjoy.\n\n\nTechnical:\n\nGeneral\nComplete name                            : H:Wolf Hall S01E02 - Entirely Beloved x264 RB58.mp4.mp4\nFormat                                   : MPEG-4\nFormat profile                           : Base Media\nCodec ID                                 : isom\nFile size                                : 635 MiB\nDuration                                 : 59mn 7s\nOverall bit rate mode                    : Constant\nOverall bit rate                         : 1 503 Kbps\nWriting application                      : Lavf54.63.104\n\nVideo\nID                                       : 1\nFormat                                   : AVC\nFormat/Info                              : Advanced Video Codec\nFormat profile                           : &lt;a class=&quot;__cf_email__&quot; href=&quot;/cdn-cgi/l/email-protection&quot; data-cfemail=&quot;410c20282f010d726f70&quot;&gt;[email&amp;#160;protected]&lt;/a&gt;&lt;script cf-hash='f9e31' type=&quot;text/javascript&quot;&gt;\n/* &lt;![CDATA[ */!function(){try{var t=&quot;currentScript&quot;in document?document.currentScript:function(){for(var t=document.getElementsByTagName(&quot;script&quot;),e=t.length;e--;)if(t[e].getAttribute(&quot;cf-hash&quot;))return t[e]}();if(t&amp;&amp;t.previousSibling){var e,r,n,i,c=t.previousSibling,a=c.getAttribute(&quot;data-cfemail&quot;);if(a){for(e=&quot;&quot;,r=parseInt(a.substr(0,2),16),n=2;a.length-n;n+=2)i=parseInt(a.substr(n,2),16)^r,e+=String.fromCharCode(i);e=document.createTextNode(e),c.parentNode.replaceChild(e,c)}}}catch(u){}}();/* ]]&gt; */&lt;/script&gt;\nFormat settings, CABAC                   : Yes\nFormat settings, ReFrames                : 2 frames\nCodec ID                                 : avc1\nCodec ID/Info                            : Advanced Video Coding\nDuration                                 : 59mn 7s\nBit rate mode                            : Constant\nBit rate                                 : 1 404 Kbps\nWidth                                    : 832 pixels\nHeight                                   : 468 pixels\nDisplay aspect ratio                     : 16:9\nFrame rate mode                          : Constant\nFrame rate                               : 25.000 fps\nColor space                              : YUV\nChroma subsampling                       : 4:2:0\nBit depth                                : 8 bits\nScan type                                : Progressive\nBits/(Pixel*Frame)                       : 0.144\nStream size                              : 594 MiB (93%)\n\nAudio\nID                                       : 2\nFormat                                   : AAC\nFormat/Info                              : Advanced Audio Codec\nFormat profile                           : LC\nCodec ID                                 : 40\nDuration                                 : 59mn 7s\nBit rate mode                            : Constant\nBit rate                                 : 93.5 Kbps\nChannel(s)                               : 2 channels\nChannel positions                        : Front: L R\nSampling rate                            : 48.0 KHz\nCompression mode                         : Lossy\nStream size                              : 39.5 MiB (6%)",
  "parsed": {
    "xt": "urn:btih:c7e36c619e7fdb5af395ed44d899be11e21fef93",
    "dn": "Wolf Hall S01E02 - Entirely Beloved x264 RB58.mp4.mp4",
    "tr": [
      "udp://exodus.desync.com:6969",
      "udp://open.demonii.com:1337",
      "udp://tracker.coppersurfer.tk:6969",
      "udp://tracker.openbittorrent.com:80"
    ],
    "infoHash": "c7e36c619e7fdb5af395ed44d899be11e21fef93",
    "infoHashBuffer": {
      "type": "Buffer",
      "data": [
        199,
        227,
        108,
        97,
        158,
        127,
        219,
        90,
        243,
        149,
        237,
        68,
        216,
        153,
        190,
        17,
        226,
        31,
        239,
        147
      ]
    },
    "name": "Wolf Hall S01E02 - Entirely Beloved x264 RB58.mp4.mp4",
    "announce": [
      "udp://exodus.desync.com:6969",
      "udp://open.demonii.com:1337",
      "udp://tracker.coppersurfer.tk:6969",
      "udp://tracker.openbittorrent.com:80"
    ],
    "urlList": []
  },
  "previous": 39,
  "peers": 9,
  "last_updated": "2016-12-25T13:39:48.472Z"
}